<svg width="24" height="24" viewBox="0 0 24 24" fill="none" xmlns="http://www.w3.org/2000/svg">
<g id="Frame">
<path id="Vector" fill-rule="evenodd" clip-rule="evenodd" d="M7.57502 3.87499C8.47015 2.97993 9.61058 2.37037 10.8521 2.12339C12.0936 1.87641 13.3805 2.00308 14.5501 2.4874C15.7196 2.97172 16.7193 3.79194 17.4227 4.84436C18.1262 5.89678 18.5017 7.13413 18.502 8.39999C18.502 11.403 19.145 13.26 19.731 14.335C20.025 14.875 20.311 15.227 20.507 15.434C20.589 15.5209 20.6769 15.6021 20.77 15.677V15.678C20.9454 15.7991 21.0776 15.973 21.1472 16.1745C21.2168 16.376 21.2202 16.5944 21.1569 16.798C21.0936 17.0015 20.9669 17.1795 20.7953 17.306C20.6237 17.4324 20.4162 17.5008 20.203 17.501H4.00002C3.78678 17.501 3.57912 17.4328 3.40737 17.3064C3.23562 17.18 3.10876 17.002 3.04533 16.7985C2.9819 16.5949 2.9852 16.3763 3.05477 16.1748C3.12434 15.9732 3.25652 15.7991 3.43202 15.678H3.43302L3.47602 15.644C3.52102 15.606 3.59802 15.538 3.69602 15.434C3.89202 15.227 4.17802 14.874 4.47202 14.334C5.05802 13.26 5.70002 11.404 5.70002 8.39999C5.70002 6.70199 6.37502 5.07499 7.57502 3.87499ZM6.11002 15.502H18.093C18.0527 15.4329 18.0133 15.3632 17.975 15.293C17.21 13.893 16.502 11.699 16.502 8.40099C16.4846 7.24539 16.0133 6.14302 15.19 5.33198C14.3666 4.52094 13.2572 4.06633 12.1015 4.06633C10.9458 4.06633 9.83644 4.52094 9.01309 5.33198C8.18973 6.14302 7.71844 7.24539 7.70102 8.40099C7.70102 11.699 6.99202 13.892 6.22802 15.293C6.18967 15.3635 6.15034 15.4335 6.11002 15.503V15.502ZM10.042 19.238C10.1556 19.1721 10.2811 19.1291 10.4113 19.1117C10.5414 19.0942 10.6738 19.1026 10.8007 19.1363C10.9277 19.17 11.0467 19.2284 11.1511 19.3081C11.2555 19.3879 11.3431 19.4874 11.409 19.601C11.4793 19.7225 11.5802 19.8233 11.7018 19.8934C11.8233 19.9635 11.9612 20.0004 12.1015 20.0004C12.2418 20.0004 12.3797 19.9635 12.5012 19.8934C12.6228 19.8233 12.7238 19.7225 12.794 19.601C12.9272 19.3716 13.146 19.2044 13.4023 19.1364C13.6587 19.0683 13.9316 19.1049 14.161 19.238C14.3904 19.3711 14.5576 19.5899 14.6256 19.8463C14.6937 20.1027 14.6572 20.3756 14.524 20.605C14.278 21.0295 13.9246 21.382 13.4995 21.6269C13.0743 21.8719 12.5922 22.0009 12.1015 22.0009C11.6108 22.0009 11.1287 21.8719 10.7036 21.6269C10.2784 21.382 9.92509 21.0295 9.67902 20.605C9.61308 20.4914 9.57016 20.3659 9.55272 20.2358C9.53528 20.1056 9.54365 19.9732 9.57736 19.8463C9.61107 19.7194 9.66945 19.6003 9.74918 19.4959C9.82891 19.3915 9.92841 19.3039 10.042 19.238Z" fill="#fefefe"/>
</g>
</svg>
