<svg width="25" height="24" viewBox="0 0 25 24" fill="none" xmlns="http://www.w3.org/2000/svg">
<g id="Frame">
<path id="Vector" d="M19.0637 21H6.62374C6.25829 21.0013 5.8962 20.9303 5.55832 20.7911C5.22043 20.6518 4.91344 20.4471 4.65503 20.1887C4.39662 19.9303 4.1919 19.6233 4.05266 19.2854C3.91342 18.9475 3.84242 18.5854 3.84374 18.22V14.67C3.84374 14.4048 3.94909 14.1504 4.13663 13.9629C4.32417 13.7754 4.57852 13.67 4.84374 13.67C5.10895 13.67 5.36331 13.7754 5.55084 13.9629C5.73838 14.1504 5.84374 14.4048 5.84374 14.67V18.22C5.84303 18.3224 5.86303 18.424 5.90256 18.5185C5.94208 18.613 6.00031 18.6986 6.07374 18.77C6.14482 18.8439 6.2303 18.9024 6.3249 18.942C6.4195 18.9816 6.52121 19.0013 6.62374 19H19.0637C19.2698 18.9974 19.4667 18.9144 19.6124 18.7687C19.7581 18.623 19.8411 18.4261 19.8437 18.22V14.67C19.8437 14.4048 19.9491 14.1504 20.1366 13.9629C20.3242 13.7754 20.5785 13.67 20.8437 13.67C21.109 13.67 21.3633 13.7754 21.5508 13.9629C21.7384 14.1504 21.8437 14.4048 21.8437 14.67V18.22C21.8451 18.5854 21.7741 18.9475 21.6348 19.2854C21.4956 19.6233 21.2908 19.9303 21.0324 20.1887C20.774 20.4471 20.467 20.6518 20.1292 20.7911C19.7913 20.9303 19.4292 21.0013 19.0637 21ZM12.8437 15.67C12.7232 15.6647 12.6046 15.6376 12.4937 15.59C12.364 15.5459 12.2472 15.4703 12.1537 15.37L7.69374 10.93C7.60106 10.8366 7.52773 10.7257 7.47797 10.6039C7.4282 10.4821 7.40298 10.3516 7.40374 10.22C7.40484 9.95766 7.50899 9.70626 7.69374 9.52C7.8811 9.33375 8.13455 9.22921 8.39874 9.22921C8.66292 9.22921 8.91638 9.33375 9.10374 9.52L11.8437 12.25V4C11.8437 3.73478 11.9491 3.48043 12.1366 3.29289C12.3242 3.10536 12.5785 3 12.8437 3C13.109 3 13.3633 3.10536 13.5508 3.29289C13.7384 3.48043 13.8437 3.73478 13.8437 4V12.25L16.5837 9.52C16.7711 9.33375 17.0246 9.22921 17.2887 9.22921C17.5529 9.22921 17.8064 9.33375 17.9937 9.52C18.1785 9.70626 18.2826 9.95766 18.2837 10.22C18.2845 10.3516 18.2593 10.4821 18.2095 10.6039C18.1597 10.7257 18.0864 10.8366 17.9937 10.93L13.5537 15.37C13.4595 15.4646 13.3473 15.5394 13.2237 15.59C13.1094 15.6377 12.9875 15.6648 12.8637 15.67H12.8437Z" fill="#212121"/>
</g>
</svg>
