<svg viewBox="0 0 24 24" fill="none" xmlns="http://www.w3.org/2000/svg">
<g clip-path="url(#clip0_0_199)">
<path fill-rule="evenodd" clip-rule="evenodd" d="M3 12.333C3 12.0678 3.10536 11.8134 3.29289 11.6259C3.48043 11.4384 3.73478 11.333 4 11.333H20C20.2652 11.333 20.5196 11.4384 20.7071 11.6259C20.8946 11.8134 21 12.0678 21 12.333C21 12.5982 20.8946 12.8526 20.7071 13.0401C20.5196 13.2276 20.2652 13.333 20 13.333H4C3.73478 13.333 3.48043 13.2276 3.29289 13.0401C3.10536 12.8526 3 12.5982 3 12.333ZM3 7C3 6.73478 3.10536 6.48043 3.29289 6.29289C3.48043 6.10536 3.73478 6 4 6H20C20.2652 6 20.5196 6.10536 20.7071 6.29289C20.8946 6.48043 21 6.73478 21 7C21 7.26522 20.8946 7.51957 20.7071 7.70711C20.5196 7.89464 20.2652 8 20 8H4C3.73478 8 3.48043 7.89464 3.29289 7.70711C3.10536 7.51957 3 7.26522 3 7ZM3 17.667C3 17.4018 3.10536 17.1474 3.29289 16.9599C3.48043 16.7724 3.73478 16.667 4 16.667H20C20.2652 16.667 20.5196 16.7724 20.7071 16.9599C20.8946 17.1474 21 17.4018 21 17.667C21 17.9322 20.8946 18.1866 20.7071 18.3741C20.5196 18.5616 20.2652 18.667 20 18.667H4C3.73478 18.667 3.48043 18.5616 3.29289 18.3741C3.10536 18.1866 3 17.9322 3 17.667Z" fill="#fefefe"/>
</g>
<defs>
<clipPath id="clip0_0_199">
<rect width="24" height="24" fill="white"/>
</clipPath>
</defs>
</svg>
