<svg width="24" height="24" viewBox="0 0 24 24" fill="none" xmlns="http://www.w3.org/2000/svg">
<g id="Frame">
<path id="Vector" fill-rule="evenodd" clip-rule="evenodd" d="M11.111 5C10.3085 5 9.51384 5.15807 8.77242 5.46517C8.031 5.77228 7.35733 6.22241 6.78987 6.78987C6.22241 7.35733 5.77228 8.031 5.46517 8.77242C5.15807 9.51384 5 10.3085 5 11.111C5 11.9135 5.15807 12.7082 5.46517 13.4496C5.77228 14.191 6.22241 14.8647 6.78987 15.4321C7.35733 15.9996 8.031 16.4497 8.77242 16.7568C9.51384 17.0639 10.3085 17.222 11.111 17.222C12.7317 17.222 14.2861 16.5782 15.4321 15.4321C16.5782 14.2861 17.222 12.7317 17.222 11.111C17.222 9.49026 16.5782 7.9359 15.4321 6.78987C14.2861 5.64384 12.7317 5 11.111 5ZM3 11.111C3 8.95983 3.85455 6.89676 5.37566 5.37566C6.89676 3.85455 8.95983 3 11.111 3C13.2622 3 15.3252 3.85455 16.8463 5.37566C18.3675 6.89676 19.222 8.95983 19.222 11.111C19.222 13.2622 18.3675 15.3252 16.8463 16.8463C15.3252 18.3675 13.2622 19.222 11.111 19.222C8.95983 19.222 6.89676 18.3675 5.37566 16.8463C3.85455 15.3252 3 13.2622 3 11.111Z" fill="#212121"/>
<path id="Vector_2" fill-rule="evenodd" clip-rule="evenodd" d="M15.426 15.426C15.6136 15.2385 15.8679 15.1332 16.133 15.1332C16.3982 15.1332 16.6525 15.2385 16.84 15.426L20.707 19.293C20.8025 19.3852 20.8787 19.4956 20.9311 19.6176C20.9835 19.7396 21.0111 19.8708 21.0123 20.0036C21.0134 20.1364 20.9881 20.2681 20.9378 20.3909C20.8876 20.5138 20.8133 20.6255 20.7194 20.7194C20.6255 20.8133 20.5139 20.8875 20.391 20.9378C20.2681 20.9881 20.1364 21.0134 20.0036 21.0122C19.8708 21.0111 19.7396 20.9835 19.6176 20.9311C19.4956 20.8787 19.3853 20.8025 19.293 20.707L15.426 16.84C15.2386 16.6525 15.1332 16.3982 15.1332 16.133C15.1332 15.8678 15.2386 15.6135 15.426 15.426Z" fill="#212121"/>
</g>
</svg>
